<svg id="Lag_1" data-name="Lag 1" xmlns="http://www.w3.org/2000/svg" viewBox="0 0 300 520"><defs><style>.cls-1{fill:#f8eacd;}.cls-2{fill:#93ae9f;stroke:#000;stroke-miterlimit:10;stroke-width:2px;}.cls-3{fill:#3e4449;}.cls-4{fill:#503430;}.cls-5{fill:#3b3431;}.cls-6{fill:#728b96;}.cls-7{fill:#56504c;}.cls-8{fill:#d13e3f;}.cls-9{fill:#5f5651;}.cls-10{fill:#b84449;}.cls-11{fill:#c8c0be;}.cls-12{fill:#bdb5b1;}.cls-13{fill:#c6beb7;}.cls-14{fill:#88a7b9;}.cls-15{fill:#d6d1d6;}.cls-16{fill:#7d99ac;}.cls-17{fill:#623537;}.cls-18{fill:#cdc3c1;}.cls-19{fill:#4c4542;}.cls-20{fill:#463f3c;}.cls-21{fill:#d0c6c4;}.cls-22{fill:#d63d40;}.cls-23{fill:#cb3d39;}.cls-24{fill:#c64244;}</style></defs><rect class="cls-1" width="300" height="520"/><rect class="cls-2" x="25" y="24.08" width="250" height="470"/><path class="cls-3" d="M145.56,354.74q0-17.22,0-34.44c4.73-1,7.85,1.27,10.26,5,0,8.34,0,16.67-.14,25-.15,9.63-.43,19.26-.65,28.89-.64,4.77-1.15,9.56-2,14.29a2.61,2.61,0,0,1-5.13-.45c-.85-7.36-1.6-14.75-2.06-22.15C145.46,365.51,145.62,360.12,145.56,354.74Zm3.81,36.31,1.55.14a47.34,47.34,0,0,0,.72-5.5c.16-12.17.22-24.33.36-36.5q.12-11.1.41-22.21c.09-3-1.1-4.22-4.75-3.62C147.64,345.91,146.28,368.53,149.37,391.05Z" transform="translate(-0.29 -0.14)"/><path class="cls-3" d="M186.83,354q-4.22-6.86-8.44-13.72l-4.59-8.58-4-6c-1.58-2.39-3.15-4.78-4.73-7.16l2.93-2.57c2,3.87,3.88,7.82,6,11.61q7.69,13.56,15.62,27a81.26,81.26,0,0,0,5.06,6.86l1.64-.88c-1.13-2.84-2.06-5.79-3.45-8.51-6.79-13.29-13.71-26.53-20.58-39.79l1.59-.69,5.37,8.93v0l4.72,9.43c1.12,2,2.34,3.94,3.36,6,3.74,7.52,7.53,15,11.06,22.63,1.55,3.33.13,5.27-3.63,5.77l-4.26-3.8Z" transform="translate(-0.29 -0.14)"/><path class="cls-4" d="M180.23,303.16q-3.18,4.17-6.34,8.35l-1.59.69L168,315.94l-2.93,2.57-6.5,5.29-2.75,1.49c-2.41-3.72-5.53-6-10.26-5l-7.72-4.55-.67-.56-.82.07c-.65-3.57-3.37-5.08-6.31-6.43-1.41-.64-2.72-1.51-4.07-2.27a20.5,20.5,0,0,1-2.8-2.14q-10.5-11.15-20.92-22.37-2.31-3.92-4.63-7.83l-4.7-8.44-1.11-3-1.12-2.16q-1.53-6.51-3-13c-1.07-6.41-3.32-12.77-1-19.35l1.6-6.72,0-.14v-1.06c0-.35,0-.7,0-1.05a.93.93,0,0,0,.27-.54l4.08-8.36,11.55-7.29a21.6,21.6,0,0,1-3,3.58c-6.45,5.09-8.89,12.2-10.22,19.86-1.49,8.56.55,16.79,2,25.18,2,11.39,7.48,21.12,14.47,29.57,8.15,9.85,17.73,18.62,27.32,27.13,5,4.45,11.37,7.4,17.18,10.93,3.09,1.87,5.92,1.82,8.64-1.13,2.07-2.25,5-3.77,7-6,4.37-4.83,8.44-9.92,12.64-14.91h0l4-4.7.61-.74,6.74-10.42.33-1.1a17.84,17.84,0,0,0,2.3-3.11c6.67-14.73,11.22-29.92,10.49-46.36-.43-9.92-2.76-18.81-11.27-25.05-.77-.57-1.08-1.76-1.61-2.67l2.25-.87c6.91,4.8,11.64,11.11,13.46,19.44a3.38,3.38,0,0,0,.53.91c0,1.87.11,3.74.17,5.61-1.95,1.63-3.17,9-1.64,10.77.44.52,1.48.54,2.24.79-.1,12.76-2.79,24.81-9.82,35.66a15.3,15.3,0,0,0-1.08,2.6l-1.24,1.88-3.82,5.75Z" transform="translate(-0.29 -0.14)"/><path class="cls-5" d="M208.82,239.77c-.76-.25-1.8-.27-2.24-.79-1.53-1.79-.31-9.14,1.64-10.77Z" transform="translate(-0.29 -0.14)"/><path class="cls-6" d="M149.37,391.05c-3.09-22.52-1.73-45.14-1.71-67.69,3.65-.6,4.84.67,4.75,3.62q-.3,11.1-.41,22.21c-.14,12.17-.2,24.33-.36,36.5a47.34,47.34,0,0,1-.72,5.5Z" transform="translate(-0.29 -0.14)"/><path class="cls-6" d="M168,315.94l4.32-3.74c6.87,13.26,13.79,26.5,20.58,39.79,1.39,2.72,2.32,5.67,3.45,8.51l-1.64.88a81.26,81.26,0,0,1-5.06-6.86q-7.95-13.41-15.62-27C171.86,323.76,170,319.81,168,315.94Z" transform="translate(-0.29 -0.14)"/><path class="cls-3" d="M108.72,335.58l15.37-25.1,1.86-3.92c1.35.76,2.66,1.63,4.07,2.27,2.94,1.35,5.66,2.86,6.31,6.43l-.55-.05a6,6,0,0,1-1.57.52c-.21,0-2.31.4-2.7-.35s.94-1.24.71-2.4a3.42,3.42,0,0,0-1.61-2c-2.26-1.6-3.2-.28-4.24,1.35-3.58,5.63-7.36,11.15-10.72,16.92-5.1,8.74-10,17.61-14.79,26.53-1.13,2.12-1.48,4.65-2.2,7l.86.16,32.68-48.53,1.6.93-26.35,42.29L100.61,366l-.91.29-3.06-.62c-.33-.95-1.2-2.12-.91-2.81,2.68-6.31,5.56-12.55,8.38-18.8Q106.42,339.83,108.72,335.58Z" transform="translate(-0.29 -0.14)"/><path class="cls-3" d="M207.5,148.52l.06-.12,1.4-2.07,4.23-7.2a36.56,36.56,0,0,0,1.53-3.45c.49-1.45.8-3,1.2-4.44l1.4-.84,1.08,1.09-.55,1.16c-1.16,1.17-2.91,2.32,0,3.54l.56,1.49c-2.82.65-4.07,2.36-3.55,5.26-1.24,2.72-2.54,5.43-3.7,8.18a13.68,13.68,0,0,0-1.29,4.29c-.15,2.19-1.16,2.66-3,2.25L200.35,154l.92-1.27,2.62.66Z" transform="translate(-0.29 -0.14)"/><path class="cls-3" d="M218.4,131.49l-1.08-1.09c3.2-1.47,7.58-.16,9.18,2.75s.65,5.13-3.05,7.57c-.55.37-1.27.81-1.45,1.37-1.89,5.76-3.68,11.56-5.72,18l5.7,1.58,2.08.41c2.91,2.81,3.79,5.71.32,8.76l-3.89-.09H219L217.2,170c-1.79-2.84-4.34-3.4-5.8-1.15s-2.58,4.6-3.86,6.9c-1.85,2.74-3.83,5.4-5.54,8.22-2.5,4.14-5,8.31-7.1,12.64-.8,1.62-.59,3.73-.84,5.61l-2.25.87-.79.25-1-1.81c3.84-7.19,7.59-14.43,11.56-21.54,1.28-2.3,1.44-3.64-1.62-4.19-3.2,6.16-6.31,12.24-9.51,18.27-3.49,6.58-7.08,13.12-10.61,19.68s-7,13-10.45,19.47c-2.2-.58-2.36-1.91-1.34-3.67l2.1-3.63c.67-.49,1.61-.84,2-1.5,1.35-2.5,2.51-5.09,3.74-7.65l4.23-9.21L181,205c.85-.57,2.07-.95,2.49-1.75,4.74-9,9.37-18.12,14-27.21a28.07,28.07,0,0,0,1.09-3.43l-4,2c-.21-.49-.71-1.07-.59-1.44q1.42-4.32,3.07-8.56c2.09-5.35,2.12-5.34-3.15-8.29.2-.5.45-1.44.6-1.43a11.18,11.18,0,0,1,2.29.64l7.72,4.35.82,3.65c-3.1.84-6.17,1.7-6.51,5.82l6.17,3c1.1-2.29,2.15-4.46,3.2-6.63l2.54.44.31-1L207.41,163,206.07,162l.67-1.21,7.95,4.18,4.94,3.18,3,1.9,1.53-4.35-3.7-1.39-5.67-2.49L212.2,160c2.87-6.19,6.69-11.57,6.15-18.94l-3.53,1.89c-.52-2.9.73-4.61,3.55-5.26l2.16,2.52,4.62-5.72C223.38,131.24,221,131,218.4,131.49Z" transform="translate(-0.29 -0.14)"/><path class="cls-3" d="M81.73,150.65c-1.61-5.42-2.32-11.26-7.21-15.11,0-3.12-.66-6.47,2.83-8.42,6.92-.48,9.81,2.71,8.21,9l11.06,15.28a52.13,52.13,0,0,1,6.13-3.87,5.32,5.32,0,0,1,4.2-.18c1.82,1,2.32,6.7,1.17,8.84l-6,2.26,2.14,9.27,1.23,1.55,0,.71-4.53-.1c0-6.09-1.13-6.58-9.55-4.22-.36,4.47.55,5.21,4.9,4.33a18.43,18.43,0,0,1,4.06.07l1.8,5.53c1.69,3.68,3.16,7.49,5.11,11s4.52,7.11,6.81,10.66h0l1.44,2.16,0,0-.06,1.5,5.64,9.72c1,2,2.07,4.1,3.1,6.16-.16.3-.52.71-.43.9,1.75,3.89,3.54,7.76,5.4,11.59.11.23.88.13,1.34.18,2.21,2,2.17,4.24-.12,6.7-.35-.3-.87-.53-1-.91-2.81-6.06-5.46-12.18-8.41-18.16-.9-1.84-2.57-3.31-3.89-4.95l-2.64-5.84a19.39,19.39,0,0,0-.93-2.3c-1.74-3.17-3.53-6.31-5.3-9.46l-1.89-2.94c-2.15-4.87-4.27-9.76-6.48-14.61-.29-.64-1-1.08-1.52-1.62l-1.07,2.47-1.91.09c-.16,0-.21-.13-.16-.29L94,175.77c-1.46-1.85-3-3.64-4.35-5.56-2.52-3.56-3.82-3.7-7.14-1.12-1.46,1.13-4.24,2.84-4.85,2.35a15.94,15.94,0,0,1-4.32-6.23c-.2-.51,2.38-2.16,3.67-3.28l2.23.85-3.75,1.56,2,4.56c2.42-1.27,4.62-2.38,6.78-3.57,1.58-.87,3.11-1.85,4.67-2.77l7.54-3.28,2.2-1.28,4.43-2.31,4-1.54-2.73-4.61-2.48,1.65-3.14,2.15-6.14,3.17-1.91-1c.15-2.72-1.36-4.58-3-6.49a4.18,4.18,0,0,1-.87-3.22c.68-3-.86-6.29-4.77-8l3.53,14.28-1.5,5-.42-.7ZM81,129.79c-2.38-.77-4.4.19-4.21,2.48.12,1.42,2.28,3.63,3.67,3.75,2,.17,4.28-1.11,3.08-4.16Z" transform="translate(-0.29 -0.14)"/><path class="cls-3" d="M101.55,190.15l-5.19-8.72c-.34-1.15-.69-2.3-1-3.45l1.91-.09c2.21,4.34,4.38,8.72,6.72,13,.29.52,1.54.52,2.35.76l1.89,2.94c-.39.6-1.16,1.25-1.08,1.79a14.37,14.37,0,0,0,1.18,3.15l-.86,1.27L105.66,198l-2.5-4.3Z" transform="translate(-0.29 -0.14)"/><path class="cls-3" d="M79.24,162.78,77,161.93l.6-1,.58-.84c2.32-.32,5,.11,5.9-3l1.5-5c.47,1.65,1,3.3,1.46,5.06l3.7-1.59,1.91,1-2,1.06-2.38,1.14-7.23,3.35-1.89.55Z" transform="translate(-0.29 -0.14)"/><path class="cls-7" d="M94,175.77l1.17,1.92Z" transform="translate(-0.29 -0.14)"/><path class="cls-8" d="M191.9,280.31l-.33,1.1-3.39.07-2.21,0-.43-4.54-3.21,1.67c-.71,1.12-1.75,2.15-2.06,3.37a69.45,69.45,0,0,0-1,7.47l3.16,2.83q-1.08,2.5-2.17,5h0l-6.44,1.49-4.2-1.16c-.31,1.31-.63,2.62-.94,3.94l1,.64,4.14-2.86a22.53,22.53,0,0,1-1.67,4.11,34.85,34.85,0,0,1-3.38,3.94c-1,1.09-1.91,2.22-3,3.23-2.69,2.64-7.3,3.12-8.47,7.6-.1.38-2.25.71-3.07.31a41.17,41.17,0,0,1-6.32-4c-5-3.76-11.52-5.36-15.25-10.88.73-2.41,1.56-4.79,2.17-7.23a89,89,0,0,0,2-9.39c.06-.43-1.59-1.53-2.48-1.57-2.48-.12-5,.26-7.47.27-4.95,0-6.12-1-6.28-6-.08-2.43-.94-3.18-3.35-3.46-2.19-.24-4.22-1.64-6.39-2.23-1-.28-2.2.14-3.31.25l-4.32-3.6,2.14-4.34-2.84-.76c-.76-.94-1.46-1.94-2.28-2.82s-2.36-1.57-2.72-2.62c-1-2.88-1.51-5.9-2.21-8.87l2.26-.06c.71-1,2-1.92,2-2.88s-1.28-1.9-2-2.86l-3,0-.66-1.45c5.4-.12,5.48-.25,3.32-5.07a2.61,2.61,0,0,1-.22-1c.06-3.06-.46-6.28.34-9.13,1.29-4.58-1.52-4.06-4.16-4.18.35-1.39.63-2.81,1.07-4.17,2.39-7.4,4.49-11.72,13.33-10.87a4.82,4.82,0,0,1,3.18,2.07c2.22,3.75,4.27,7.61,6.14,11.55a22.4,22.4,0,0,1,1.84,6.1c.69,4.32-1.08,9.78,5.66,11,.39.07.76.58,1,1,1.73,2.84,3.71,2.53,5.86.54l5.78,0c-.13,1.56-.26,3.11-.46,5.45l-3.9-3.09L131,246.75c1,.66,2,1.85,3,1.86a32.58,32.58,0,0,0,6-1c1.57.74.5,5.4,4.26,2.86l7.22-2.86,0,3.62c-2.22-.2-3,.6-3.8,3-1.14,3.38-.61,8.41-6.17,9.07-.57.06-1.27,1.37-1.42,2.19-1.2,6.25-.3,7.79,5.65,10.21V280c4.58,1.58,5.2,1.26,6.64-3.23.2-.65.6-1.56,1.12-1.73,4.7-1.62,4.3-4.39,1.47-7.91,1.69-1.47,3.15-3.84,4.86-4,4.34-.49,8.8,0,13.21.09a11.69,11.69,0,0,0,3.69,0c2.69-.84,3.54.22,3.5,2.73,0,2.81,0,5.63,0,8.42h9.43C190.78,276.16,193,277.62,191.9,280.31Z" transform="translate(-0.29 -0.14)"/><path class="cls-8" d="M95.32,251.3c.7,3,1.23,6,2.21,8.87.36,1.05,1.84,1.69,2.72,2.62s1.52,1.88,2.28,2.82c.23,1.7.47,3.4.7,5.1l4.32,3.6c0,.93,0,1.86,0,2.79l4.26,5.82c-.3,3.56,3.45,3.71,4.9,5.79q2.2,2.51,4.4,5l9.38,7.94,2.15,2c3.73,5.52,10.26,7.12,15.25,10.88a41.17,41.17,0,0,0,6.32,4c.82.4,3,.07,3.07-.31,1.17-4.48,5.78-5,8.47-7.6,1-1,2-2.14,3-3.23a34.85,34.85,0,0,0,3.38-3.94,22.53,22.53,0,0,0,1.67-4.11c0-.18,0-.37,0-.56l6.44-1.49c-4.2,5-8.27,10.08-12.64,14.91-2.06,2.27-4.94,3.79-7,6-2.72,2.95-5.55,3-8.64,1.13-5.81-3.53-12.17-6.48-17.18-10.93-9.59-8.51-19.17-17.28-27.32-27.13-7-8.45-12.48-18.18-14.47-29.57-1.46-8.39-3.5-16.62-2-25.18,1.33-7.66,3.77-14.77,10.22-19.86a21.6,21.6,0,0,0,3-3.58l1.86-.78a18.94,18.94,0,0,1,3,3.37c3.69,6.8,7.12,13.74,10.85,20.51a70.32,70.32,0,0,0,5.07,7.07l0-.06,2.93,9.26,3.51-2.6,0,2c-2.15,2-4.13,2.31-5.86-.53-.24-.4-.61-.91-1-1-6.74-1.2-5-6.66-5.66-11a22.4,22.4,0,0,0-1.84-6.1c-1.87-3.94-3.92-7.8-6.14-11.55a4.82,4.82,0,0,0-3.18-2.07c-8.84-.85-10.94,3.47-13.33,10.87-.44,1.36-.72,2.78-1.07,4.17l-.06,3.5v11.61l.77,4.3c.22.48.44,1,.67,1.45Q94.94,248.43,95.32,251.3Z" transform="translate(-0.29 -0.14)"/><path class="cls-8" d="M191.9,280.31c1.06-2.69-1.12-4.15-2.27-6l4-.42-1.11-3.13c1.19-1.08,2.85-1.93,3.49-3.27a73.52,73.52,0,0,0,2.9-8.31l.9-7.83c1.38.35,2.7.61,2.7-1.5,0-7.47.17-14.93,0-22.39a5.42,5.42,0,0,0-2.39-4c-3.32-1.76-4.94-5.68-9.77-5.92-2.71-.14-3.41.05-4.24,2.13-.42,1.05-1.06,2-1.56,3q-2.56,5.2-5.11,10.43l-1.91,1.41c.06-1.29-.25-2.75.25-3.84,1.83-4,4-7.78,5.91-11.71,2.53-5.19,4.93-10.44,7.39-15.66l.79-.25c.53.91.84,2.1,1.61,2.67,8.51,6.24,10.84,15.13,11.27,25.05.73,16.44-3.82,31.63-10.49,46.36A17.84,17.84,0,0,1,191.9,280.31Z" transform="translate(-0.29 -0.14)"/><path class="cls-8" d="M188.18,281.48l3.39-.07-6.74,10.42-.33-.34Q186.34,286.48,188.18,281.48Z" transform="translate(-0.29 -0.14)"/><path class="cls-8" d="M180.22,297.27q1.09-2.52,2.17-5l1.4,0a3.73,3.73,0,0,0,.43.36Z" transform="translate(-0.29 -0.14)"/><path class="cls-9" d="M88.22,221.4v0Z" transform="translate(-0.29 -0.14)"/><path class="cls-10" d="M184.83,291.83l-.61.74a3.73,3.73,0,0,1-.43-.36l.71-.72Z" transform="translate(-0.29 -0.14)"/><path class="cls-6" d="M107.28,355a33.63,33.63,0,0,1-3.43,4.19A34.72,34.72,0,0,1,99.52,363l-.86-.16c.72-2.34,1.07-4.87,2.2-7,4.79-8.92,9.69-17.79,14.79-26.53,3.36-5.77,7.14-11.29,10.72-16.92,1-1.63,2-3,4.24-1.35,1.87,1.32,2.11,2.44.9,4.38q-11,17.63-21.82,35.35c0,.07-.2.46-.46,1A21.64,21.64,0,0,1,107.28,355Z" transform="translate(-0.29 -0.14)"/><path class="cls-3" d="M130.49,141.3v-9.38l11.63,1.43,2.92.44c.34-3.85.61-7,.88-10.1.59.72,1.5,1.35,1.71,2.17a16.82,16.82,0,0,1,.63,5c-.16,3.18,1.3,3.41,3.7,2.36l1.69.11,10.83-.47,4.38-.26c0,3,.37,5.84-.11,8.54-.41,2.32-2.27,2.8-4.67,2a82.67,82.67,0,0,0-8.36-2l.69-2,3,.38,7.06,1.89c-.46-2.55-.74-4.09-1-5.73H160l-4.46.27a.24.24,0,0,0-.39.11l-.75.14-8.71,0c-3.61-.44-7.22-1-10.84-1.23-.64,0-1.36,1.26-2,1.94v1.43l1.39,1.4.35.05.35-.09,10.81-.91,8.59.31c-.76,1.45-1.53,2.89-2.29,4.33a18.47,18.47,0,0,1-3.56.06c-3.31-.52-4.38,1-3.92,4l-2.41.2c-.39-2.15-.77-4.31-1.21-6.77l-6,1.67Z" transform="translate(-0.29 -0.14)"/><path class="cls-3" d="M154.35,125.47c-.23,2.63-.47,5.26-.7,7.89l-1.69-.11c-.65-5.38-1.28-10.77-2-16.15-.06-.48-.9-.86-1.38-1.29v-1.46c5-2.06,1.7-4.94.75-7.59l-.56-.8,4,.17c.64,1.42,1.28,2.83,1.93,4.25C150.88,115.33,152.83,120.41,154.35,125.47Z" transform="translate(-0.29 -0.14)"/><path class="cls-3" d="M156.41,139.19l-.69,2c-.22.76-.45,1.51-.68,2.27l-.56.37.57.31.06.19.19,0c-.1,1.85-.2,3.71-.31,5.57-2.21-.18-3.78.41-3.62,3.05l-2.66,3.46-4.31-3.57-1.49-.11-.77-5,2.41-.2a.45.45,0,0,1,.42.17l1.63,2.07c3.54,0,5.14-1.86,5.43-6.32.76-1.44,1.53-2.88,2.29-4.33l0-.19L156,139A.85.85,0,0,1,156.41,139.19Z" transform="translate(-0.29 -0.14)"/><path class="cls-11" d="M190.06,152.06c-.19.73-.39,1.45-.58,2.17" transform="translate(-0.29 -0.14)"/><path class="cls-3" d="M189.48,154.23l.58-2.17,2.08-3.47,2.44-1,3.58,3,.31.13.33,0h0l2.21,1.41a4,4,0,0,0,.26.56l-.92,1.27-3.46-1.75c-1.91-2.56-3.1-.88-4.13.79a14.64,14.64,0,0,0-1.06,2.82Z" transform="translate(-0.29 -0.14)"/><path class="cls-11" d="M194.58,147.64l-2.44,1" transform="translate(-0.29 -0.14)"/><path class="cls-12" d="M209,146.33l-1.4,2.07Z" transform="translate(-0.29 -0.14)"/><path class="cls-12" d="M201,152.14l-2.21-1.41Z" transform="translate(-0.29 -0.14)"/><path class="cls-13" d="M155.05,144.12l-.57-.31.56-.37C155.05,143.67,155.06,143.89,155.05,144.12Z" transform="translate(-0.29 -0.14)"/><path class="cls-3" d="M112.61,186.57c.3.77.61,1.54.92,2.31l1.16,2.31a.46.46,0,0,0,.34.54l2.53,5,1.57,2.49.65,1.78,0,2.07-.93,1.19-2.28-3.34-1.08-1.41,0,0-1.44-2.16h0c.08-.48.39-1.07.22-1.42-2.16-4.51-4.32-9-6.62-13.44-1.53-3-3.3-5.81-5-8.7l-.56.21v1.66l-1.8-5.53a1.76,1.76,0,0,1,.59-.18l4.53.1c-1.28,3.48,1,5.87,2.58,8.46l2.22,4.21" transform="translate(-0.29 -0.14)"/><path class="cls-3" d="M148.56,114.35v1.46a11.23,11.23,0,0,0-.91,1.57c-.76,2.05.8,4.74-1.73,6.31-.27,3.12-.54,6.25-.88,10.1l-2.92-.44c.63-5.27,1.38-10.53,1.82-15.81a8.82,8.82,0,0,0-1.19-4.16c-1.58-3.26-.65-5.53,2.86-6.55C143.55,112.27,143.92,113.22,148.56,114.35Z" transform="translate(-0.29 -0.14)"/><path class="cls-14" d="M148.56,114.35c-4.64-1.13-5-2.08-2.95-7.52l1.92-.73,1.78.66C150.26,109.41,153.58,112.29,148.56,114.35Z" transform="translate(-0.29 -0.14)"/><path class="cls-15" d="M149.31,106.76l-1.78-.66,1.22-.14Z" transform="translate(-0.29 -0.14)"/><path class="cls-16" d="M214.82,142.94l3.53-1.89c.54,7.37-3.28,12.75-6.15,18.94l2.57,1.81c0,1-.05,2.1-.08,3.15l-7.95-4.18-.67,1.21,1.34,1.05-.64.54h-1.39c-.27-1.22-.55-2.43-.82-3.65l2.23-2.27c1.88.41,2.89-.06,3-2.25a13.68,13.68,0,0,1,1.29-4.29C212.28,148.37,213.58,145.66,214.82,142.94Z" transform="translate(-0.29 -0.14)"/><path class="cls-14" d="M218.4,131.49c2.63-.49,5-.25,6.75,3l-4.62,5.72-2.16-2.52c-.19-.5-.38-1-.56-1.49,0-1.18,0-2.36,0-3.54Z" transform="translate(-0.29 -0.14)"/><path class="cls-16" d="M206.79,157.66l-2.23,2.27-7.72-4.36c0-1.11,0-2.23,0-3.35l3.46,1.75Z" transform="translate(-0.29 -0.14)"/><path class="cls-3" d="M217.85,132.65c0,1.18,0,2.36,0,3.54C214.94,135,216.69,133.82,217.85,132.65Z" transform="translate(-0.29 -0.14)"/><path class="cls-16" d="M169.39,233.25q5.22-9.74,10.45-19.47c3.53-6.56,7.12-13.1,10.61-19.68,3.2-6,6.31-12.11,9.51-18.27,3.06.55,2.9,1.89,1.62,4.19-4,7.11-7.72,14.35-11.56,21.54a17.73,17.73,0,0,0-1.36,2c-3.75,7.55-7.19,15.27-11.35,22.59-1.76,3.09-2.1,7.75-6.88,8.56Z" transform="translate(-0.29 -0.14)"/><path class="cls-3" d="M170.43,234.72c4.78-.81,5.12-5.47,6.88-8.56,4.16-7.32,7.6-15,11.35-22.59a17.73,17.73,0,0,1,1.36-2l1,1.81c-2.46,5.22-4.86,10.47-7.39,15.66-1.91,3.93-4.08,7.74-5.91,11.71-.5,1.09-.19,2.55-.25,3.84a.4.4,0,0,0-.23.29l-8.51,1Z" transform="translate(-0.29 -0.14)"/><path class="cls-17" d="M170.43,234.72l-1.7,1.14c-4.31.09-5.33-.75-5.74-4.69h0l2.43-2.62,1.92-3.13,5.93-11.82L177,207.7c1.51-2.34,2.68-4.66-.45-6.68,2.56-.68,3.67.94,4.56,2.89l0,1.12-.93,2.56-5,9.17q-2.48,4.61-5,9.19l-2.1,3.63c-1,1.76-.86,3.09,1.34,3.67Z" transform="translate(-0.29 -0.14)"/><path class="cls-15" d="M181,205c0-.37,0-.74,0-1.12q1.09-2.44,2.17-4.89,2.1-4.78,4.19-9.56l6.49-13.14c.24-.55.47-1.11.71-1.66l4-2a28.07,28.07,0,0,1-1.09,3.43c-4.63,9.09-9.26,18.18-14,27.21C183.09,204.08,181.87,204.46,181,205Z" transform="translate(-0.29 -0.14)"/><path class="cls-16" d="M205.38,163.58h1.39l1.47,2.16c-1.05,2.17-2.1,4.34-3.2,6.63l-6.17-3C199.21,165.28,202.28,164.42,205.38,163.58Z" transform="translate(-0.29 -0.14)"/><path class="cls-16" d="M214.69,165c0-1,.05-2.1.08-3.15l5.67,2.49-.81,3.84Z" transform="translate(-0.29 -0.14)"/><path class="cls-16" d="M196.89,152.22c0,1.12,0,2.24,0,3.35a11.81,11.81,0,0,0-2.29-.63c-.15,0-.4.93-.6,1.43l-2,.53-.21-1.07a14.64,14.64,0,0,1,1.06-2.82C193.79,151.34,195,149.66,196.89,152.22Z" transform="translate(-0.29 -0.14)"/><path class="cls-16" d="M219.63,168.13l.81-3.84,3.7,1.39L222.61,170Z" transform="translate(-0.29 -0.14)"/><path class="cls-18" d="M175.11,216.76l5-9.17-4.23,9.21Z" transform="translate(-0.29 -0.14)"/><path class="cls-11" d="M175.11,216.76l.75,0c-1.23,2.56-2.39,5.15-3.74,7.65-.36.66-1.3,1-2,1.5Q172.63,221.36,175.11,216.76Z" transform="translate(-0.29 -0.14)"/><path class="cls-16" d="M208.24,165.73l-1.47-2.16.64-.54c1.22.73,2.45,1.45,3.68,2.17l-.31,1Z" transform="translate(-0.29 -0.14)"/><path class="cls-19" d="M220.49,170.8l3.89.09" transform="translate(-0.29 -0.14)"/><path class="cls-3" d="M118.9,204.21l.93-1.19a4.84,4.84,0,0,0,.65.09l3,5.61c.53,1.44.77,3.08,1.64,4.27,3.78,5.15,4.52,12.21,10.23,16.2a3.38,3.38,0,0,1,.58,3.22c-1.3,2.6-3,5-4.58,7.46l-3.51,2.6-2.93-9.26a35.18,35.18,0,0,0,3.46,3c.47.32,1.37,0,2.07,0,2.29-2.46,2.33-4.72.12-6.7l-6.31-12.67c-1-2.06-2.07-4.11-3.1-6.16Z" transform="translate(-0.29 -0.14)"/><path class="cls-16" d="M130.41,236.21c-.7,0-1.6.33-2.07,0a35.18,35.18,0,0,1-3.46-3l0,.06a14.58,14.58,0,0,0-.74-3.67c-2.67-5.49-5.48-10.92-8.25-16.36l1.15-1.05c1.32,1.64,3,3.11,3.89,4.95,3,6,5.6,12.1,8.41,18.16C129.54,235.68,130.06,235.91,130.41,236.21Z" transform="translate(-0.29 -0.14)"/><path class="cls-14" d="M90.75,155.54l-3.7,1.59c-.51-1.76-1-3.41-1.46-5.06-1.14-4.6-2.28-9.21-3.53-14.28,3.91,1.75,5.45,5,4.77,8a4.18,4.18,0,0,0,.87,3.22C89.39,151,90.9,152.82,90.75,155.54Z" transform="translate(-0.29 -0.14)"/><path class="cls-14" d="M81.05,162.06l7.23-3.35c.23,1.28.47,2.56.7,3.85-1.56.92-3.09,1.9-4.67,2.77-2.16,1.19-4.36,2.3-6.78,3.57l-2-4.56,3.75-1.56-.08-.17Z" transform="translate(-0.29 -0.14)"/><path class="cls-16" d="M101,169.93a1.76,1.76,0,0,0-.59.18,18.43,18.43,0,0,0-4.06-.07c-4.35.88-5.26.14-4.9-4.33C99.86,163.35,101,163.84,101,169.93Z" transform="translate(-0.29 -0.14)"/><path class="cls-15" d="M102.2,175.64V174l.56-.21c1.66,2.89,3.43,5.74,5,8.7,2.3,4.43,4.46,8.93,6.62,13.44.17.35-.14.94-.22,1.42-2.29-3.55-4.78-7-6.81-10.66S103.89,179.32,102.2,175.64Z" transform="translate(-0.29 -0.14)"/><path class="cls-16" d="M106.31,191.65c-.81-.24-2.06-.24-2.35-.76-2.34-4.28-4.51-8.66-6.72-13,.36-.83.71-1.65,1.07-2.47.52.54,1.23,1,1.52,1.62C102,181.89,104.16,186.78,106.31,191.65Z" transform="translate(-0.29 -0.14)"/><path class="cls-16" d="M108.3,199.53a14.37,14.37,0,0,1-1.18-3.15c-.08-.54.69-1.19,1.08-1.79,1.77,3.15,3.56,6.29,5.3,9.46a19.39,19.39,0,0,1,.93,2.3l-1.6,1-1.5-2.22-1.22-1.77C109.51,202.1,108.91,200.81,108.3,199.53Z" transform="translate(-0.29 -0.14)"/><path class="cls-14" d="M90.66,157.57l2-1.06,6.14-3.17c0,1.56-.06,3.11-.08,4.66l-2.2,1.28Z" transform="translate(-0.29 -0.14)"/><path class="cls-15" d="M124.22,216.84l6.31,12.67c-.46,0-1.23.05-1.34-.18-1.86-3.83-3.65-7.7-5.4-11.59C123.7,217.55,124.06,217.14,124.22,216.84Z" transform="translate(-0.29 -0.14)"/><path class="cls-16" d="M83.54,131.86c1.2,3-1.11,4.33-3.08,4.16-1.39-.12-3.55-2.33-3.67-3.75C76.6,130,78.62,129,81,129.79c-.54,1.17-1.09,2.33-1.63,3.49,1.07-.33,2.14-.65,3.2-1A7.48,7.48,0,0,0,83.54,131.86Z" transform="translate(-0.29 -0.14)"/><path class="cls-16" d="M101.94,151.19l2.48-1.65,2.73,4.61-4,1.54C102.75,154.19,102.34,152.69,101.94,151.19Z" transform="translate(-0.29 -0.14)"/><path class="cls-14" d="M90.66,157.57l5.86,1.71L89,162.56c-.23-1.29-.47-2.57-.7-3.85Z" transform="translate(-0.29 -0.14)"/><path class="cls-15" d="M118.9,204.21l2.22,6.47L115.48,201l1.14-.09Z" transform="translate(-0.29 -0.14)"/><path class="cls-16" d="M101.94,151.19c.4,1.5.81,3,1.21,4.5L98.72,158c0-1.55,0-3.1.08-4.66Z" transform="translate(-0.29 -0.14)"/><path class="cls-16" d="M112.83,207.38l1.6-1,2.64,5.84-1.15,1.05Z" transform="translate(-0.29 -0.14)"/><path class="cls-16" d="M83.54,131.86a7.48,7.48,0,0,1-1,.42c-1.06.35-2.13.67-3.2,1,.54-1.16,1.09-2.32,1.63-3.49Z" transform="translate(-0.29 -0.14)"/><path class="cls-20" d="M105.48,169.32l-1.23-1.55" transform="translate(-0.29 -0.14)"/><path class="cls-21" d="M114.12,197.33l1.44,2.16Z" transform="translate(-0.29 -0.14)"/><path class="cls-15" d="M116.62,200.87l-1.14.09.06-1.5Z" transform="translate(-0.29 -0.14)"/><path class="cls-3" d="M112.83,207.38l3.09,5.86c2.77,5.44,5.58,10.87,8.25,16.36a14.58,14.58,0,0,1,.74,3.67,70.32,70.32,0,0,1-5.07-7.07c-3.73-6.77-7.16-13.71-10.85-20.51a18.94,18.94,0,0,0-3-3.37l1.45-1.52.86-1.27c.61,1.28,1.21,2.57,1.81,3.86l1.22,1.77Z" transform="translate(-0.29 -0.14)"/><path class="cls-3" d="M81.05,162.06l-1.89.55Z" transform="translate(-0.29 -0.14)"/><path class="cls-8" d="M177.47,234.58l1.91-1.4c1.49,1.17,3.69,2,4.33,3.58,1.47,3.46,3.49,4.55,6.94,3.27.13-.05.38.24,0,0,1.13,6,2.17,11.48,3.2,17v2.16c-3.62,3.49-2.2,7.57-1.36,11.59l1.11,3.13-4,.42H180.2c0-2.79,0-5.61,0-8.42,0-2.51-.81-3.57-3.5-2.73a11.69,11.69,0,0,1-3.69,0c-4.41-.09-8.87-.58-13.21-.09-1.71.19-3.17,2.56-4.86,4,2.83,3.52,3.23,6.29-1.47,7.91-.52.17-.92,1.08-1.12,1.73-1.44,4.49-2.06,4.81-6.64,3.23.92-.5,2.13-.8,2.67-1.57a2.71,2.71,0,0,0-.08-2.62c-.38-.45-1.7-.1-2.6-.1-5.95-2.42-6.85-4-5.65-10.21.15-.82.85-2.13,1.42-2.19,5.56-.66,5-5.69,6.17-9.07.8-2.36,1.58-3.16,3.8-3,.14,1.05.28,2.11.52,3.87a25.9,25.9,0,0,0,3.43-3.17,21.14,21.14,0,0,0,1.68-3.56l-3.56-1.46,3.63-6.52a24.3,24.3,0,0,0,4.79-.76c.95-.33,1.64-1.43,2.45-2.18a18.54,18.54,0,0,0,3.49.57c3.43-.07,7.12.45,9.37-3.18A.4.4,0,0,1,177.47,234.58Z" transform="translate(-0.29 -0.14)"/><path class="cls-8" d="M131.32,239.87c1.56-2.47,3.28-4.86,4.58-7.46a3.38,3.38,0,0,0-.58-3.22c-5.71-4-6.45-11.05-10.23-16.2-.87-1.19-1.11-2.83-1.64-4.26l-.06-2.71,4.37,3.82c2.66,0,3-2.16,2.91-4.64l4.33.06a.65.65,0,0,1,.51.27c-.44,2.83-.93,5.65-1.29,8.49-.29,2.28,1,2.61,2.84,2l3.37,1V210.5l-3.34.5-1.48-5.44,7,4.22.18,1.25,0,1.4-.1,5L143,234l-.25,5.74c-.49,3.08-1.7,6.21.78,9l.71,1.77c-3.76,2.54-2.69-2.12-4.26-2.86q0-4,0-7.93c2.28-4.36,1.73-8.67-.39-13q-1.26,5.06-2.54,10.11l-.06,5.07-5.78,0C131.29,241.19,131.3,240.53,131.32,239.87Z" transform="translate(-0.29 -0.14)"/><path class="cls-8" d="M132.69,303.65l-2.15-2c.38-1.87.77-3.74,1.27-6.16l2.94-1.66c-1.81-.76-2.87-1.17-3.91-1.64-1.45-.66-2.93-1.28-4.3-2.07a19.66,19.66,0,0,1-2.56-2l-1.28,3.36-5.94-2.76c-1.45-2.08-5.2-2.23-4.9-5.79a10.22,10.22,0,0,0,2.83-.09,24.81,24.81,0,0,0,3.6-1.82c-1.1-1-2-2.6-3.33-3a43.7,43.7,0,0,0-7.36-.93c0-.93,0-1.86,0-2.79,1.11-.11,2.3-.53,3.31-.25,2.17.59,4.2,2,6.39,2.23,2.41.28,3.27,1,3.35,3.46.16,5,1.33,6,6.28,6,2.49,0,5-.39,7.47-.27.89,0,2.54,1.14,2.48,1.57a89,89,0,0,1-2,9.39C134.25,298.86,133.42,301.24,132.69,303.65Z" transform="translate(-0.29 -0.14)"/><path class="cls-8" d="M93.91,244.08c-.26-1.43-.51-2.86-.77-4.3,1.79-2,1.78-8.67,0-11.61l.06-3.5c2.64.12,5.45-.4,4.16,4.18-.8,2.85-.28,6.07-.34,9.13a2.61,2.61,0,0,0,.22,1C99.39,243.83,99.31,244,93.91,244.08Z" transform="translate(-0.29 -0.14)"/><path class="cls-8" d="M184.5,291.49l-.71.72-1.4,0-3.16-2.83a69.45,69.45,0,0,1,1-7.47c.31-1.22,1.35-2.25,2.06-3.37.34,1.21.41,2.62,1.09,3.58,1.12,1.58,2.27,1.6,2.55-.71l2.21,0Q186.35,286.49,184.5,291.49Z" transform="translate(-0.29 -0.14)"/><path class="cls-8" d="M137.05,241.88l.06-5.07,2.93,2.9q0,4,0,7.93a32.58,32.58,0,0,1-6,1c-1,0-2-1.2-3-1.86l1.66-2.51,3.9,3.09C136.79,245,136.92,243.44,137.05,241.88Z" transform="translate(-0.29 -0.14)"/><path class="cls-10" d="M144.26,250.5c-.23-.59-.47-1.18-.71-1.77,5.65-1.48,9.32-5.33,12.15-10.18l.62-.18.82,2-3.63,6.52-2,.7Z" transform="translate(-0.29 -0.14)"/><path class="cls-8" d="M151.48,247.64l2-.7,3.56,1.46a21.14,21.14,0,0,1-1.68,3.56,25.9,25.9,0,0,1-3.43,3.17c-.24-1.76-.38-2.82-.52-3.87C151.45,250.05,151.47,248.85,151.48,247.64Z" transform="translate(-0.29 -0.14)"/><path class="cls-8" d="M173.78,298.76c0,.19,0,.38,0,.56l-4.14,2.86-1-.64c.31-1.32.63-2.63.94-3.94Z" transform="translate(-0.29 -0.14)"/><path class="cls-22" d="M186,281.44c-.28,2.31-1.43,2.29-2.55.71-.68-1-.75-2.37-1.09-3.58l3.21-1.67Z" transform="translate(-0.29 -0.14)"/><path class="cls-22" d="M103.23,270.71c-.23-1.7-.47-3.4-.7-5.1l2.84.76Z" transform="translate(-0.29 -0.14)"/><path class="cls-22" d="M95.32,251.3q-.37-2.88-.74-5.77l3,0,0,5.74Z" transform="translate(-0.29 -0.14)"/><path class="cls-8" d="M145.7,275.69c.9,0,2.22-.35,2.6.1a2.71,2.71,0,0,1,.08,2.62c-.54.77-1.75,1.07-2.67,1.57C145.71,278.55,145.7,277.12,145.7,275.69Z" transform="translate(-0.29 -0.14)"/><path class="cls-8" d="M97.58,251.24l0-5.74c.71,1,2,1.91,2,2.86S98.29,250.28,97.58,251.24Z" transform="translate(-0.29 -0.14)"/><path class="cls-8" d="M122.7,291.47c.42-1.12.85-2.24,1.28-3.36a19.66,19.66,0,0,0,2.56,2c1.37.79,2.85,1.41,4.3,2.07,1,.47,2.1.88,3.91,1.64l-2.94,1.66c-.5,2.42-.89,4.29-1.27,6.16l-9.38-7.94Zm7,1.74-.59.24.5.66c.16-.13.41-.25.44-.41S129.78,293.39,129.65,293.21Z" transform="translate(-0.29 -0.14)"/><path class="cls-8" d="M107.6,277.1A43.7,43.7,0,0,1,115,278c1.29.38,2.23,2,3.33,3a24.81,24.81,0,0,1-3.6,1.82,10.22,10.22,0,0,1-2.83.09Z" transform="translate(-0.29 -0.14)"/><path class="cls-8" d="M93.13,228.17c1.79,2.94,1.8,9.6,0,11.61Q93.13,234,93.13,228.17Z" transform="translate(-0.29 -0.14)"/><path class="cls-22" d="M122.7,291.47l-1.54,2.26q-2.19-2.52-4.4-5Z" transform="translate(-0.29 -0.14)"/><path class="cls-8" d="M193.85,257c-1-5.5-2.07-11-3.2-17,.38.25.13,0,0,0-3.45,1.28-5.47.19-6.94-3.27-.64-1.53-2.84-2.41-4.33-3.58q2.55-5.24,5.11-10.44c.5-1,1.14-2,1.56-3,.83-2.08,1.53-2.27,4.24-2.13,4.83.24,6.45,4.16,9.77,5.92a5.42,5.42,0,0,1,2.39,4c.2,7.46.06,14.92,0,22.39,0,2.11-1.32,1.85-2.7,1.5l-1.61-.08C194.18,251.25,195.22,255,193.85,257Z" transform="translate(-0.29 -0.14)"/><path class="cls-8" d="M192.49,270.75c-.84-4-2.26-8.1,1.36-11.59h3.57l1.46,0a73.52,73.52,0,0,1-2.9,8.31C195.34,268.82,193.68,269.67,192.49,270.75Z" transform="translate(-0.29 -0.14)"/><path class="cls-22" d="M198.88,259.17l-1.45,0q.36-3.94.74-7.89l1.61.08Z" transform="translate(-0.29 -0.14)"/><path class="cls-14" d="M145.92,123.69c2.53-1.57,1-4.26,1.73-6.31a11.23,11.23,0,0,1,.91-1.57c.48.43,1.32.81,1.38,1.29.74,5.38,1.37,10.77,2,16.15-2.4,1.05-3.86.82-3.7-2.36a16.82,16.82,0,0,0-.63-5C147.42,125,146.51,124.41,145.92,123.69Z" transform="translate(-0.29 -0.14)"/><path class="cls-16" d="M145,147.75a.45.45,0,0,0-.42-.17c-.46-3.06.61-4.54,3.92-4a18.47,18.47,0,0,0,3.56-.06c-.29,4.46-1.89,6.32-5.43,6.32Z" transform="translate(-0.29 -0.14)"/><path class="cls-14" d="M132.83,137c.68-.68,1.4-2,2-1.94,3.62.23,7.23.79,10.84,1.23,0,.87,0,1.73,0,2.59l-10.81.91,4.94-2.87-.2-.83Z" transform="translate(-0.29 -0.14)"/><path class="cls-14" d="M160,135.73h5.43c.3,1.64.58,3.18,1,5.73l-7.06-1.89-.06-1.54.54-1.8A2.78,2.78,0,0,1,160,135.73Z" transform="translate(-0.29 -0.14)"/><path class="cls-14" d="M145.73,138.86c0-.86,0-1.72,0-2.59l8.71,0c0,.29-.09.59-.13.88l-.18.27.25.22a1.25,1.25,0,0,1,.06.61l-.14.75,0,.19Z" transform="translate(-0.29 -0.14)"/><path class="cls-14" d="M132.83,137l6.83-.91.2.83-4.94,2.87-.35.09-.35-.05-1.39-1.4Z" transform="translate(-0.29 -0.14)"/><path class="cls-14" d="M159.37,138l.06,1.54-3-.38A.85.85,0,0,0,156,139c-.15-1-.31-2-.46-3l4.46-.27a2.78,2.78,0,0,0-.11.5l-1.47.58Z" transform="translate(-0.29 -0.14)"/><path class="cls-14" d="M155.56,136c.15,1,.31,2,.46,3l-1.74-.05c.05-.25.1-.5.14-.75l.75-2.12A.24.24,0,0,1,155.56,136Z" transform="translate(-0.29 -0.14)"/><path class="cls-16" d="M132.83,138.41l1.39,1.4Z" transform="translate(-0.29 -0.14)"/><path class="cls-14" d="M155.17,136.11l-.75,2.12a1.25,1.25,0,0,0-.06-.61.92.92,0,0,0-.07-.49c0-.29.08-.59.13-.88Z" transform="translate(-0.29 -0.14)"/><path class="cls-3" d="M192.09,177.2l0,0,1.8-.84-6.49,13.14-.78,0,.6-1v0Z" transform="translate(-0.29 -0.14)"/><path class="cls-3" d="M140.6,154.9l2.31-2.16,1.49.11q0,4.28-.08,8.56v2.16q.38,3.93.74,7.86v13.93l1.15,0,.17-3.08c.48-2.91,1.32-5.81,1.36-8.73.06-4.75-.4-9.51-.64-14.27l1.56-2.23a7.29,7.29,0,0,1,.58,1.92c.12,7.76.19,15.53.27,23.3a19.14,19.14,0,0,0-.19,2.13q.33,27.07.7,54.15a10,10,0,0,0,.81,2.68l-2.27,1.56c-.28-7.37-.6-14.74-.82-22.11-.32-10.77-.58-21.54-.87-32.32H145V201a2.94,2.94,0,0,0-.66.05H143q-.14-15.13-.28-30.27l-.69-13.15Z" transform="translate(-0.29 -0.14)"/><path class="cls-21" d="M149.51,182.24c-.08-7.77-.15-15.54-.27-23.3a7,7,0,0,0-.59-1.92,1,1,0,0,1,.06-.6l2.66-3.46a.63.63,0,0,0,.12.56.92.92,0,0,0,0,.69l.06,5.06c0,1.67,0,3.34,0,5q0,9,.07,18l-.24,6.46c-.2-1.51-.31-3-.65-4.54A7.26,7.26,0,0,0,149.51,182.24Z" transform="translate(-0.29 -0.14)"/><path class="cls-14" d="M148.71,156.42a1,1,0,0,0-.06.6c-.51.75-1,1.49-1.55,2.23l-2.78,2.16q0-4.29.08-8.56Z" transform="translate(-0.29 -0.14)"/><path class="cls-3" d="M151.55,159.27l-.06-5.06c0-.07.16-.15.15-.22a2.84,2.84,0,0,0-.15-.47.63.63,0,0,1-.12-.56c-.16-2.64,1.41-3.23,3.62-3.05l-1,2.25-.73-.9-.37.5,1.08.44-.48,7.08Z" transform="translate(-0.29 -0.14)"/><path class="cls-3" d="M145,147.75l1.63,2.07Z" transform="translate(-0.29 -0.14)"/><path class="cls-3" d="M151.58,182.27q0-9-.07-18l2.81,0V165a15.14,15.14,0,0,0-1.11,3.46c-.29,4.6-.39,9.21-.57,13.81Z" transform="translate(-0.29 -0.14)"/><path class="cls-3" d="M154.32,164.32l-2.81,0c0-1.67,0-3.34,0-5h1.92l.91,3.31Z" transform="translate(-0.29 -0.14)"/><path class="cls-3" d="M154,152.2l-1.08-.44.37-.5.73.9Z" transform="translate(-0.29 -0.14)"/><path class="cls-4" d="M122,198.63l4.94.13,2.13,0,.78,1,3.43.84,3,.36,6.43,4.08-.1,4.65q-3.51-2.11-7-4.22l-.1,0a.65.65,0,0,0-.51-.27l-1.48-1.68-1.46-.54-1.43-.25-2.5-.94-6.58-.68-1.77-.22c-.22-.59-.43-1.19-.65-1.78Z" transform="translate(-0.29 -0.14)"/><path class="cls-12" d="M110.32,182.7l-2.22-4.21" transform="translate(-0.29 -0.14)"/><path class="cls-17" d="M119.78,201l1.77.22-1.07,1.94a4.84,4.84,0,0,1-.65-.09C119.81,202.33,119.8,201.64,119.78,201Z" transform="translate(-0.29 -0.14)"/><path class="cls-10" d="M177.24,234.87c-2.25,3.63-5.94,3.11-9.37,3.18a18.54,18.54,0,0,1-3.49-.57l-2.07-2c-1.14-1.64-2.27-3.28.68-4.27.41,3.94,1.43,4.78,5.74,4.69Z" transform="translate(-0.29 -0.14)"/><path class="cls-8" d="M163,231.17c-3,1-1.82,2.63-.68,4.27l-.68.74-3,.67-2.26,1.52-.62.17c-.56-.74-1.58-1.47-1.61-2.24-.27-6.9-.25-13.82-.56-20.73-.13-3,.58-5.36,2.94-7.19l5.89,3c.43-2.34.46-3.81,1-5.05a19.11,19.11,0,0,1,2.48-3.41l1.5-.33,1.44.57,6.45,4.44c-.66,2-1.31,4-2,6l-5.93,11.82h-2.8c-.67-4.39,3.19-5.7,6.2-8.75-1.83-.73-3.57-2.09-4.69-1.7a5.8,5.8,0,0,0-3,3.83c-.47,2.28.06,4.69-2.19,6.46-.51.4-.1,2-.12,3-.23,0-.51-.08-.69,0-1.18.58-2.34,1.21-3.5,1.82l1.12,1.57,3.07-3c.06-.06,0-.23,0-.34l2.19.09v2.8Z" transform="translate(-0.29 -0.14)"/><path class="cls-5" d="M167.35,202.58l-1.5.33-7.08,2.61-1.79-.38c4.56-2.16,9.12-4.34,13.71-6.45a10.82,10.82,0,0,1,2.38-.5l9.13-.24,1,1.07q-1.08,2.44-2.17,4.89c-.89-1.95-2-3.57-4.56-2.89Z" transform="translate(-0.29 -0.14)"/><path class="cls-8" d="M167.35,202.58,176.5,201c3.13,2,2,4.34.45,6.68l-.41-.35c-.66-5.41-1.87-6.06-7.75-4.2Z" transform="translate(-0.29 -0.14)"/><path class="cls-8" d="M173.27,213.59c.66-2,1.31-4,2-6l1.3-.24.41.35Z" transform="translate(-0.29 -0.14)"/><path class="cls-10" d="M164.54,225.41h2.8l-1.92,3.13c-.15-.15-.31-.29-.47-.43C164.82,227.21,164.68,226.31,164.54,225.41Z" transform="translate(-0.29 -0.14)"/><path class="cls-10" d="M163,231.16v-2.8l2-.25c.16.14.32.28.47.43Z" transform="translate(-0.29 -0.14)"/><path class="cls-3" d="M183.23,199l-1-1.07c.53-1.4,1.07-2.8,1.61-4.19q1.41-2.17,2.83-4.33l.78,0Q185.32,194.23,183.23,199Z" transform="translate(-0.29 -0.14)"/><path class="cls-8" d="M120.48,203.11l1.07-1.94,6.58.68c.16.36.33.72.49,1.07l-.26.28h-2.1l-3.52-.06,0,2.09.68.78.06,2.71Z" transform="translate(-0.29 -0.14)"/><path class="cls-7" d="M111.33,205.16l-1.22-1.77Z" transform="translate(-0.29 -0.14)"/><path class="cls-8" d="M198.17,251.26q-.37,3.94-.74,7.89h-3.58V257C195.22,255,194.18,251.25,198.17,251.26Z" transform="translate(-0.29 -0.14)"/><path class="cls-8" d="M161.63,236.18l.68-.74,2.07,2c-.81.75-1.5,1.85-2.45,2.18a24.3,24.3,0,0,1-4.79.76l-.82-2,2.26-1.52Z" transform="translate(-0.29 -0.14)"/><path class="cls-17" d="M157,205.14l1.79.37-2.3,2.87c-2.36,1.83-3.07,4.21-2.94,7.19.31,6.91.29,13.83.56,20.73,0,.77,1,1.5,1.61,2.24-2.83,4.86-6.5,8.71-12.15,10.19-2.48-2.82-1.27-5.95-.78-9l1.56,5.84,4.23-2.78,2.26-1.56a18.83,18.83,0,0,0,.62-3.34c.12-9.89.17-19.78.24-29.67l2-.76Z" transform="translate(-0.29 -0.14)"/><path class="cls-3" d="M144.33,245.54l-1.56-5.84c.08-1.91.17-3.82.25-5.74q-.15-8.25-.31-16.5c0-1.68.07-3.35.1-5,0-.47,0-.94,0-1.4l-.18-1.25.09-4.65c.09-1.38.19-2.76.28-4.13h1.32l.06,2.83c0,2.26,0,4.52,0,6.77Q144.37,228.08,144.33,245.54Z" transform="translate(-0.29 -0.14)"/><path class="cls-8" d="M140,239.71l-2.93-2.9q1.27-5.06,2.54-10.11C141.77,231,142.32,235.35,140,239.71Z" transform="translate(-0.29 -0.14)"/><path class="cls-8" d="M123.39,206l-.68-.78,0-2.09,3.52.06,2.88,1.28,1.53.71c.09,2.48-.25,4.64-2.91,4.64Z" transform="translate(-0.29 -0.14)"/><path class="cls-8" d="M135.51,205.53l.1,0,1.47,5.44c0,1.69,0,3.37,0,5.05-1.84.58-3.13.25-2.84-2C134.58,211.18,135.07,208.36,135.51,205.53Z" transform="translate(-0.29 -0.14)"/><path class="cls-8" d="M137.06,216.05c0-1.68,0-3.36,0-5.05l3.35-.5V217Z" transform="translate(-0.29 -0.14)"/><path class="cls-17" d="M142.71,217.46q.15,8.25.31,16.5Q142.87,225.71,142.71,217.46Z" transform="translate(-0.29 -0.14)"/><path class="cls-8" d="M130.67,205.2l-1.53-.71-.78-1.29.26-.28,2-.13,1.43.25,1.46.54,1.48,1.68Z" transform="translate(-0.29 -0.14)"/><path class="cls-4" d="M142.83,211c0,.46,0,.93,0,1.4C142.82,212,142.83,211.49,142.83,211Z" transform="translate(-0.29 -0.14)"/><path class="cls-23" d="M129.65,293.21c.13.18.37.36.35.49s-.28.28-.44.41l-.5-.66Z" transform="translate(-0.29 -0.14)"/><path class="cls-14" d="M159.37,138l-.93-1.22,1.47-.58Z" transform="translate(-0.29 -0.14)"/><path class="cls-14" d="M154.29,137.13a.92.92,0,0,1,.07.49l-.25-.22Z" transform="translate(-0.29 -0.14)"/><path class="cls-7" d="M187.24,188.39v0Z" transform="translate(-0.29 -0.14)"/><path class="cls-3" d="M153.69,207.43l-2,.76q-.18-9.74-.34-19.46l.24-6.46h1.06c.11,6.93.18,13.85.35,20.77A33.24,33.24,0,0,0,153.69,207.43Z" transform="translate(-0.29 -0.14)"/><path class="cls-16" d="M144.33,245.54q0-17.47,0-34.94c0-2.25,0-4.51,0-6.77L145,201V188.34h1.87c.29,10.78.55,21.55.87,32.32.22,7.37.54,14.74.82,22.11Z" transform="translate(-0.29 -0.14)"/><path class="cls-15" d="M151.34,188.73q.16,9.74.34,19.46c-.07,9.89-.12,19.78-.24,29.67a18.83,18.83,0,0,1-.62,3.34,10.39,10.39,0,0,1-.8-2.68q-.41-27.08-.7-54.15a19.14,19.14,0,0,1,.19-2.13,7.26,7.26,0,0,1,1.18,1.95C151,185.68,151.14,187.22,151.34,188.73Z" transform="translate(-0.29 -0.14)"/><path class="cls-16" d="M144.32,161.41l2.78-2.16c.24,4.76.7,9.52.64,14.27,0,2.92-.88,5.82-1.36,8.73l-1.32-10v-.8c.69-2.7,1.76-5.45-.74-7.86Z" transform="translate(-0.29 -0.14)"/><path class="cls-14" d="M145.06,172.23l1.32,10c-.06,1-.12,2.05-.17,3.08l-1.15,0Z" transform="translate(-0.29 -0.14)"/><path class="cls-14" d="M144.32,163.57c2.5,2.41,1.43,5.16.74,7.86Q144.7,167.5,144.32,163.57Z" transform="translate(-0.29 -0.14)"/><path class="cls-6" d="M145,201l-.6,2.88-.06-2.83A2.94,2.94,0,0,1,145,201Z" transform="translate(-0.29 -0.14)"/><path class="cls-3" d="M151.49,153.52a2.84,2.84,0,0,1,.15.47c0,.07-.1.15-.15.22A.92.92,0,0,1,151.49,153.52Z" transform="translate(-0.29 -0.14)"/><path class="cls-19" d="M122,197.36" transform="translate(-0.29 -0.14)"/><path class="cls-19" d="M129.07,198.8l-2.13,0" transform="translate(-0.29 -0.14)"/><path class="cls-17" d="M130.63,202.79l-2,.13c-.16-.35-.33-.71-.49-1.07Z" transform="translate(-0.29 -0.14)"/><path class="cls-17" d="M133.52,203.58l-1.46-.54Z" transform="translate(-0.29 -0.14)"/><path class="cls-22" d="M165,228.11l-2,.25-2.19-.09,0,0c0-1-.39-2.6.12-3,2.25-1.77,1.72-4.18,2.19-6.46a5.8,5.8,0,0,1,3-3.83c1.12-.39,2.86,1,4.69,1.7-3,3.05-6.87,4.36-6.2,8.75C164.68,226.31,164.82,227.21,165,228.11Z" transform="translate(-0.29 -0.14)"/><path class="cls-8" d="M156.47,208.38l2.3-2.87,7.08-2.6a19.11,19.11,0,0,0-2.48,3.41c-.55,1.24-.58,2.71-1,5.05Z" transform="translate(-0.29 -0.14)"/><path class="cls-22" d="M176.54,207.35l-1.3.24-6.45-4.44C174.67,201.29,175.88,201.94,176.54,207.35Z" transform="translate(-0.29 -0.14)"/><path class="cls-8" d="M160.8,228.27c0,.11,0,.28,0,.34l-3.07,3-1.12-1.57c1.16-.61,2.32-1.24,3.5-1.82.18-.09.46,0,.69,0Z" transform="translate(-0.29 -0.14)"/><path class="cls-22" d="M161.63,236.18l-3,.67Z" transform="translate(-0.29 -0.14)"/><path class="cls-24" d="M128.36,203.2l.78,1.29-2.88-1.28Z" transform="translate(-0.29 -0.14)"/><path class="cls-24" d="M122.74,203.15l0,2.09Z" transform="translate(-0.29 -0.14)"/></svg>